<svg data-name="レイヤー 1" xmlns="http://www.w3.org/2000/svg" viewBox="0 0 520 180"><path fill="#e60012" d="M91.137 0L10 179.998h510V0H91.137z"/><path d="M160.135 42.581v96.79h39.41c28.818 0 47.832-19.22 47.832-48.4s-19.014-48.395-47.832-48.395zm38.949 21.363c17.107 0 25.331 11.2 25.331 27.032 0 15.625-8.224 27.032-25.331 27.032H182.11V63.944zm137.409 53.995h-46.318V42.581H268.2v96.79h68.293zm62.595-77.155c-28.423 0-48.49 20.879-48.49 50.192s20.067 50.192 48.49 50.192c17.632 0 31.646-8.227 40.068-21.432l-18.027-13.412c-5.264 8.227-12.9 12.721-22.239 12.721-13.619 0-25.4-10.094-25.4-28.069 0-16.592 10.79-28.069 25.331-28.069 9.54 0 17.106 4.563 21.909 12.79l19.277-11.615c-7.825-14.656-23.352-23.298-40.919-23.298z" fill="#fff"/></svg>